<svg version="1.1" id="Layer_1" xmlns="http://www.w3.org/2000/svg" xmlns:xlink="http://www.w3.org/1999/xlink" x="0px" y="0px"
	 width="100%" viewBox="0 0 992 992" enable-background="new 0 0 992 992" xml:space="preserve">
<path fill="#000000" opacity="1.000000" stroke="none" 
	d="
M348.899323,292.920380 
	C381.280212,255.865738 421.424286,233.153900 469.690735,225.720703 
	C512.825745,219.077744 554.614807,224.648407 593.238098,245.417679 
	C650.815186,276.379211 686.343079,324.163330 698.411072,388.828278 
	C700.399597,399.483765 701.261475,410.237335 701.262512,421.065735 
	C701.268311,481.054718 702.554443,541.078003 700.957520,601.024475 
	C698.697876,685.847290 656.950867,746.078064 580.835205,782.345459 
	C556.423462,793.977234 530.106506,798.461792 502.802551,798.606995 
	C439.355682,798.944214 387.649628,774.265381 346.810455,726.580933 
	C322.325226,697.991577 307.911194,664.462402 302.574432,627.085266 
	C301.016144,616.171387 300.629303,605.246521 300.641541,594.252808 
	C300.705139,537.263367 300.664978,480.273682 300.673431,423.284088 
	C300.680725,374.022491 316.736450,330.676300 348.899323,292.920380 
M385.938660,427.604065 
	C387.671448,437.919830 391.246185,447.655853 395.570465,457.160950 
	C392.379211,447.105621 389.187927,437.050323 386.123749,426.333923 
	C385.674255,421.907532 385.187805,417.484497 384.788757,413.053558 
	C384.538361,410.273132 384.587891,407.385803 388.178253,406.898834 
	C391.591583,406.435913 392.187500,409.082550 392.616333,411.682892 
	C394.128021,420.849823 395.526642,429.997711 398.251831,438.962585 
	C403.506104,456.247437 410.829346,472.602570 419.055878,488.611084 
	C420.501129,491.423523 422.119141,494.053467 425.751343,496.470306 
	C423.066437,488.138428 420.729736,480.753052 418.307343,473.395874 
	C411.859222,453.812225 405.340576,434.251709 398.946167,414.650635 
	C398.138123,412.173676 397.142395,409.020752 400.812744,407.957611 
	C404.102356,407.004791 405.483795,409.447113 406.422150,412.226929 
	C410.730621,424.990387 415.165649,437.711273 419.442169,450.485321 
	C424.090881,464.371368 428.592407,478.306610 433.205597,492.204681 
	C434.735229,496.812988 436.804688,501.205627 439.867950,504.986603 
	C442.793610,508.597656 446.519409,508.061554 448.397766,503.774933 
	C450.352112,499.315033 450.109344,494.716400 448.573975,490.131042 
	C440.801727,466.919403 432.524445,443.899689 422.294525,421.635193 
	C420.073547,416.801453 417.422455,412.167023 415.104614,407.375427 
	C414.099792,405.298187 413.883606,403.061584 416.334839,401.726624 
	C418.652863,400.464203 420.538544,401.388855 421.888397,403.451080 
	C422.981689,405.121399 424.035645,406.830170 424.949890,408.602905 
	C430.682068,419.717621 435.393066,431.288239 440.024506,442.885254 
	C445.890076,457.572632 451.308014,472.428101 456.186157,487.475525 
	C456.904785,489.692200 457.973297,491.574066 460.582245,491.519653 
	C463.371002,491.461548 464.602783,489.389008 465.274933,487.046051 
	C465.634552,485.792664 465.652313,484.420074 465.686218,483.097717 
	C465.936737,473.317230 463.449524,463.985413 460.811218,454.711151 
	C455.832367,437.209412 448.490356,420.624634 441.128723,404.030457 
	C436.813507,394.303345 432.863708,384.356750 433.652191,373.305725 
	C434.085541,367.232147 437.225830,363.104645 442.472473,360.355774 
	C447.464020,357.740509 451.883698,359.271606 455.894897,362.446320 
	C458.759857,364.713837 461.764648,366.998657 463.998077,369.834198 
	C471.177795,378.949432 480.663361,374.859467 490.293915,375.558685 
	C484.668213,368.151489 479.739502,361.557373 476.529907,354.042816 
	C466.991333,331.710602 448.733612,319.703583 426.946228,312.216217 
	C405.693726,304.912628 383.651520,300.545532 361.662842,296.042450 
	C358.306152,295.355011 356.375702,296.143250 354.354797,298.525146 
	C345.596863,308.847412 337.783447,319.826569 331.411591,331.770142 
	C327.623749,338.870178 323.821381,346.013367 321.646790,354.510773 
	C324.397949,353.965607 326.476624,353.533173 328.563324,353.143982 
	C336.080780,351.741821 343.608154,350.365417 351.307587,350.755859 
	C362.670624,351.332092 369.889130,355.977600 371.118652,364.086121 
	C372.940216,376.099030 375.654907,387.914673 378.460907,399.707855 
	C380.643066,408.879059 382.120148,418.267883 385.938660,427.604065 
M693.669678,524.500061 
	C693.669556,503.500916 693.573425,482.500916 693.757507,461.503387 
	C693.790771,457.704010 692.516052,455.848236 688.876648,455.600250 
	C684.230469,455.283661 679.598328,454.995789 674.946289,455.889587 
	C670.046997,456.830872 667.430115,459.641663 666.600891,464.508850 
	C662.520264,488.460693 656.608704,512.000061 650.154175,535.395813 
	C646.703247,547.904114 643.155945,560.457581 634.997375,571.022644 
	C633.229248,573.312317 631.340332,575.280945 628.602966,576.407776 
	C621.307861,579.410645 618.195557,586.255249 620.565735,593.933228 
	C624.615417,607.051636 625.451477,620.347778 622.787048,633.836365 
	C617.953003,658.309204 604.763672,677.945801 587.355591,695.166748 
	C584.772705,697.721924 581.822449,698.376648 578.297913,698.370789 
	C532.132080,698.294312 485.966095,698.320496 439.800171,698.323242 
	C416.047485,698.324707 415.720612,698.576233 401.252533,679.614563 
	C378.417999,649.687927 370.861298,617.375671 386.723602,581.412720 
	C397.609985,556.731384 407.655609,531.679260 418.094055,506.799988 
	C418.942230,504.778412 419.904327,502.967682 417.835175,500.933685 
	C413.837341,497.003784 411.630829,491.903992 409.325439,486.910797 
	C407.707489,483.406616 406.327972,479.965881 401.587036,479.444122 
	C399.064636,479.166534 397.325592,476.885101 395.885681,474.830780 
	C391.774536,468.965363 387.725098,463.057587 385.475159,456.139313 
	C376.047272,427.149780 369.319977,397.492950 363.745117,367.564178 
	C362.976196,363.436157 361.029816,360.769470 357.192932,359.650726 
	C353.354523,358.531555 349.359955,357.803345 345.347717,358.474426 
	C337.813690,359.734528 330.313538,361.195862 322.792389,362.534790 
	C319.320099,363.153015 317.419403,365.065765 316.397888,368.550232 
	C311.312988,385.895294 308.471619,403.611298 308.410156,421.637756 
	C308.216461,478.469513 308.369507,535.302429 308.312317,592.134766 
	C308.299255,605.136780 308.992981,618.062988 311.260193,630.879578 
	C320.468231,682.932556 346.574799,724.676208 389.356689,755.380737 
	C421.059265,778.133606 456.730560,790.054626 496.153076,790.993164 
	C526.444275,791.714294 555.521973,786.531860 582.262451,772.919739 
	C654.488525,736.153625 691.776062,676.691589 693.592529,595.497253 
	C694.114319,572.175964 693.670349,548.833069 693.669678,524.500061 
M578.064148,577.838257 
	C579.551819,571.493652 581.039490,565.149109 582.862366,557.375122 
	C580.438965,560.329041 578.966614,562.104492 577.514771,563.896606 
	C571.124573,571.784973 565.457764,580.292969 557.755127,587.058289 
	C550.160095,593.729248 543.437195,591.838623 540.427185,582.157532 
	C539.989746,580.750610 539.818054,579.240051 539.685059,577.762939 
	C538.814026,568.091919 542.943359,559.890442 547.565186,551.920837 
	C555.934753,537.488708 566.537659,524.533142 575.286438,510.345551 
	C576.145081,508.953247 577.773865,507.602875 577.001343,505.883636 
	C573.080994,497.158783 569.421204,488.293579 564.460266,479.605042 
	C562.788330,481.127991 561.607117,482.266632 560.360718,483.328857 
	C553.537720,489.144012 547.305176,495.784546 538.396851,498.641937 
	C531.558960,500.835266 523.590149,498.547638 520.059448,493.225494 
	C517.172791,488.874115 518.406616,483.417419 523.636658,477.461670 
	C524.516235,476.460022 525.394348,475.452606 526.336487,474.511261 
	C536.098755,464.757385 543.741821,453.563354 549.920959,441.218353 
	C552.256226,436.552979 553.615906,432.459106 552.052429,427.157349 
	C550.808044,422.937378 550.936523,418.275269 550.720825,413.796692 
	C550.217896,403.351898 552.230286,393.350311 557.296631,383.226654 
	C554.668884,383.226654 552.881531,383.226532 551.094238,383.226654 
	C535.427612,383.227722 519.760986,383.228882 504.094360,383.229980 
	C485.594482,383.231323 467.094513,383.209229 448.594727,383.248169 
	C442.998993,383.259949 442.418518,384.053284 444.272552,389.435944 
	C445.626343,393.366272 447.466309,397.131042 448.779694,401.072845 
	C449.964630,404.629089 452.071289,405.878967 455.838440,405.825989 
	C469.502289,405.633850 483.170624,405.748779 496.837189,405.773529 
	C498.498260,405.776550 500.200867,405.735596 501.809723,406.071625 
	C503.958679,406.520477 505.361298,407.857635 505.240387,410.291046 
	C505.126831,412.577026 503.609344,413.491760 501.633698,413.706909 
	C499.652466,413.922668 497.644318,413.953156 495.647827,413.956085 
	C482.353638,413.975769 469.059418,413.966309 455.756073,413.966309 
	C455.071594,417.082458 457.171600,419.012451 457.695465,421.370880 
	C458.825562,426.459015 461.804321,427.999420 467.046356,427.890411 
	C483.872253,427.540558 500.710175,427.760559 517.543457,427.784546 
	C519.203857,427.786896 520.896729,427.780365 522.515869,428.087341 
	C524.470032,428.457886 525.899658,429.741821 525.996521,431.810089 
	C526.106262,434.156860 524.579590,435.510193 522.429382,435.956512 
	C520.981140,436.257019 519.449280,436.219940 517.954773,436.221924 
	C501.954803,436.243073 485.954834,436.225128 469.954926,436.255463 
	C463.917328,436.266907 463.614044,436.642181 465.401825,442.085693 
	C469.458282,454.436829 472.986816,466.914856 473.789551,479.964722 
	C474.385101,489.646301 471.587799,499.050018 460.385162,499.397156 
	C457.934113,499.473083 457.617310,501.126709 457.206268,503.069397 
	C456.249084,507.593048 454.461334,511.663879 449.896210,513.773071 
	C443.017059,516.951355 437.733704,515.326172 432.701691,508.449829 
	C431.068817,506.218536 428.950348,503.157532 426.881500,507.275024 
	C422.435516,516.123596 418.561920,525.278931 415.476349,534.827515 
	C417.685913,535.997009 419.542786,535.655457 421.320831,535.657959 
	C439.487427,535.682983 457.654022,535.669434 475.820648,535.681152 
	C477.317322,535.682068 478.831726,535.664795 480.306152,535.876770 
	C482.238495,536.154602 483.133026,537.507935 483.198181,539.385254 
	C483.264099,541.283691 482.379242,542.674377 480.504669,543.049255 
	C479.053528,543.339539 477.524597,543.303955 476.030151,543.305359 
	C456.363525,543.324341 436.696869,543.308350 417.030334,543.352051 
	C414.935669,543.356750 412.345764,542.654785 411.073364,544.925964 
	C408.587524,549.363098 406.535400,554.021362 405.494781,559.043884 
	C408.699249,560.508545 411.570618,559.994385 414.355316,559.999573 
	C444.355072,560.055420 474.355133,560.011658 504.354523,560.135315 
	C507.600952,560.148743 512.595581,559.099060 512.755676,563.971680 
	C512.936157,569.459900 507.789276,568.180420 504.371124,568.188782 
	C471.704681,568.268433 439.038025,568.237366 406.371490,568.283875 
	C404.305664,568.286804 401.669403,567.484863 400.540619,569.987549 
	C397.623474,576.455078 394.958740,583.036377 392.276642,589.375000 
	C394.477448,591.463867 396.571564,590.952881 398.493134,590.966675 
	C406.492676,591.024170 414.492889,590.981445 422.492859,590.980774 
	C430.992828,590.979980 439.494751,590.881409 447.991669,591.043457 
	C451.007080,591.100952 455.180573,590.666260 455.012329,595.293091 
	C454.866455,599.303589 451.179443,599.208679 448.126343,599.251587 
	C446.293365,599.277344 444.459747,599.260559 442.626434,599.260498 
	C426.459808,599.259705 410.291107,599.400940 394.127899,599.165649 
	C389.613647,599.099976 387.952942,600.957764 387.307800,605.080200 
	C385.931824,613.872375 385.951843,622.590332 387.233551,631.403381 
	C387.919769,636.121948 389.527008,638.133484 394.794678,638.102417 
	C432.626373,637.879456 470.460205,637.975281 508.293121,638.069336 
	C511.572968,638.077515 516.556519,637.036987 516.657593,641.909851 
	C516.766052,647.136780 511.744598,646.217590 508.217560,646.222351 
	C471.717712,646.271179 435.217743,646.251770 398.717926,646.311401 
	C396.669952,646.314758 394.363922,645.551392 392.717377,647.305603 
	C392.188293,648.719360 392.769653,649.771362 393.247467,650.822327 
	C399.669647,664.948853 408.706421,677.219910 419.608307,688.200745 
	C422.010254,690.620056 424.832520,690.688049 427.882843,690.686279 
	C476.716064,690.658691 525.549561,690.607239 574.382141,690.776184 
	C579.015259,690.792236 582.187317,689.245361 585.210510,685.984863 
	C601.913635,667.970398 614.108704,647.747070 616.374939,622.690857 
	C617.136475,614.270813 615.968994,606.002075 613.301758,597.871704 
	C610.711609,599.249451 608.670227,601.248901 606.639282,601.238342 
	C601.289734,601.210571 599.258789,604.583374 596.718201,608.375977 
	C592.105713,615.261597 583.960571,614.873413 579.467712,607.938599 
	C577.815002,605.387695 577.003845,602.540894 576.647583,599.501831 
	C575.824036,592.476440 576.739929,585.573975 578.064148,577.838257 
M487.996307,358.518219 
	C490.771454,363.090912 494.099731,367.222015 497.606750,371.263672 
	C500.452820,374.543640 503.572845,375.836700 507.980865,375.780273 
	C526.134644,375.547913 544.293213,375.681152 562.450012,375.717316 
	C564.887756,375.722168 567.674377,375.152588 569.085266,377.982178 
	C570.485718,380.790955 568.495605,382.710968 566.944153,384.642426 
	C557.144958,396.841309 558.730164,410.920349 559.659790,424.907928 
	C561.620117,425.223999 562.327759,424.143860 563.164062,423.411743 
	C576.701416,411.561249 592.344421,403.795868 609.619263,398.997894 
	C633.662842,392.319946 658.195618,387.801239 682.476440,382.174408 
	C688.773926,380.714996 688.751648,380.675598 687.167847,374.644836 
	C677.609985,338.250183 659.228088,307.105316 631.290405,281.844208 
	C586.917542,241.722382 534.627258,225.547348 475.524841,232.629974 
	C441.308044,236.730392 410.440430,250.166641 383.146210,271.374084 
	C376.670441,276.405701 370.197296,281.528320 364.636414,288.482330 
	C366.627747,289.032196 367.874603,289.427734 369.145294,289.719666 
	C386.955566,293.811707 404.936462,297.195679 422.448395,302.526093 
	C449.548309,310.774902 472.672180,324.006622 484.245911,351.769836 
	C485.137482,353.908539 486.483948,355.857605 487.996307,358.518219 
M562.240906,470.738922 
	C566.321350,466.796570 570.439697,462.844696 575.501892,460.200714 
	C587.043640,454.172485 596.174561,459.286743 597.194885,472.284637 
	C597.349243,474.251068 597.136841,476.280243 596.842041,478.242493 
	C594.955261,490.799683 589.761353,502.123596 583.501282,512.989014 
	C575.838684,526.288818 566.364624,538.397278 558.009094,551.244873 
	C553.721802,557.837036 549.865967,564.635803 547.935120,572.340210 
	C546.945618,576.288513 546.692322,580.143066 550.110535,583.255066 
	C552.900269,582.085144 554.752563,580.146301 556.443970,578.107239 
	C560.378296,573.364258 564.389771,568.666260 568.025574,563.697998 
	C581.284424,545.580261 597.333191,529.491516 607.687500,509.257355 
	C608.062622,508.524292 608.595398,507.855194 609.136658,507.226898 
	C610.654541,505.464996 612.630188,505.126038 614.538574,506.213318 
	C616.687195,507.437469 616.591370,509.436401 615.528687,511.429260 
	C615.059509,512.309204 614.444580,513.112305 613.988892,513.998169 
	C606.523071,528.512146 595.006165,540.779053 591.579773,557.593750 
	C588.899109,570.748657 583.844849,583.425598 584.286011,597.162659 
	C584.397583,600.635742 585.083008,603.726868 588.809570,605.491821 
	C592.302490,602.665649 593.626221,598.675171 594.947754,594.803528 
	C604.247681,567.557617 613.394470,540.259338 622.761780,513.036804 
	C623.919678,509.671906 623.752014,503.338745 629.480530,505.301117 
	C635.151794,507.243896 631.141724,512.256042 630.116333,515.615906 
	C624.530701,533.917969 617.478333,551.737610 612.065369,570.108154 
	C609.760742,577.929688 606.957397,585.604309 604.380676,593.345703 
	C606.046204,592.969788 606.965881,592.272949 607.675049,591.404297 
	C608.618286,590.248962 609.546448,589.036438 610.225220,587.716919 
	C621.524048,565.752380 631.643677,543.332153 636.267700,518.848328 
	C636.945068,515.261841 637.262207,511.608368 637.794556,507.993073 
	C638.169312,505.447571 639.237427,503.502777 642.233765,503.623383 
	C645.382263,503.750122 645.314514,506.082947 645.327637,508.302063 
	C645.347168,511.595062 645.332703,514.888245 645.332703,518.181335 
	C651.196899,500.341888 655.424072,482.259827 658.642029,463.960754 
	C660.250427,454.814423 664.033691,450.506775 673.138733,448.615662 
	C678.587097,447.484039 684.030212,447.176544 689.476990,448.308899 
	C692.723267,448.983795 693.701660,447.578400 693.673584,444.618988 
	C693.616699,438.620270 693.582031,432.619080 693.687927,426.621552 
	C693.885376,415.441895 692.563782,404.395630 691.106873,393.345184 
	C690.652466,389.898407 689.119019,388.737946 685.769470,389.520264 
	C659.226257,395.719696 632.139404,399.731476 606.199402,408.332520 
	C583.407227,415.889801 563.794495,427.685181 553.920776,451.297638 
	C551.416382,457.286652 547.423218,462.506348 543.381653,467.634125 
	C538.835205,473.402435 533.848206,478.762848 528.965942,484.228271 
	C527.817322,485.514099 526.203979,487.075867 527.180481,489.078796 
	C528.231812,491.235138 530.363831,491.774628 532.660828,491.897003 
	C536.190796,492.084991 539.125977,490.691071 541.945251,488.793182 
	C549.327576,483.823456 555.335938,477.312012 562.240906,470.738922 
M572.184692,472.569244 
	C571.972900,473.180969 571.419922,473.927429 571.600281,474.384277 
	C574.557373,481.872162 577.951355,489.150085 582.017273,496.410187 
	C586.585510,489.980316 589.718994,478.180237 588.867920,471.453583 
	C588.133728,465.650177 585.035339,463.961212 579.902649,466.856934 
	C577.326294,468.310425 575.057373,470.308990 572.184692,472.569244 
M442.220123,375.079041 
	C447.045197,376.234863 451.822418,375.533386 457.699829,375.540314 
	C453.924866,371.381805 451.486267,367.191711 446.589783,367.698395 
	C443.287048,368.040161 442.046906,371.225433 442.220123,375.079041 
z"/>
<path fill="#000000" opacity="1.000000" stroke="none" 
	d="
M235.172623,279.690613 
	C233.255798,277.249969 233.932419,275.260132 235.638214,273.634033 
	C237.618149,271.746613 239.921753,272.232452 242.140503,273.334412 
	C252.871567,278.664093 263.653168,283.895721 274.307434,289.374908 
	C280.980286,292.806610 287.887268,295.666107 294.766754,298.616486 
	C296.581848,299.394867 298.419403,300.355835 299.891602,301.639984 
	C301.791870,303.297485 302.578827,305.563446 300.847290,307.850555 
	C299.290039,309.907501 297.242706,310.862183 294.768463,309.288696 
	C288.255737,305.146973 280.835938,302.988190 273.946716,299.677460 
	C271.566681,298.533722 269.370972,298.225311 266.768829,299.015381 
	C258.232025,301.607361 249.628357,303.979126 240.956039,306.462524 
	C241.734787,308.795288 243.583603,309.028595 244.976242,309.680756 
	C257.329681,315.465607 269.276459,322.100372 281.893494,327.338196 
	C283.233368,327.894440 284.602997,328.754059 285.533539,329.838043 
	C287.153748,331.725555 287.721558,333.944794 286.034119,336.217651 
	C284.347687,338.489075 282.350067,337.922852 280.268921,336.891846 
	C265.952850,329.799896 251.633835,322.713837 237.312408,315.632690 
	C232.540512,313.273254 227.753937,310.943481 222.983948,308.580200 
	C221.197342,307.695007 219.160172,306.930359 219.440216,304.360931 
	C219.698761,301.988678 221.146423,300.426636 223.277100,299.524933 
	C224.179977,299.142853 225.198196,298.731049 226.138062,298.784943 
	C236.932800,299.403900 246.292435,293.690094 258.029175,292.223999 
	C250.426132,286.352203 242.070831,284.665497 235.172623,279.690613 
z"/>
<path fill="#000000" opacity="1.000000" stroke="none" 
	d="
M779.892090,406.916046 
	C781.218384,407.845459 783.754028,407.988495 786.901855,407.510193 
	C791.824524,406.762268 796.755005,406.060944 801.665588,405.240082 
	C804.877991,404.703064 807.592590,405.312561 808.063354,408.906158 
	C808.516785,412.366852 806.276123,413.921082 802.975647,414.323639 
	C787.001160,416.272064 771.030701,418.255005 755.066040,420.282166 
	C750.300110,420.887329 745.718872,422.633514 740.824890,422.534271 
	C737.746155,422.471832 734.980286,422.004303 734.791992,418.196320 
	C734.622009,414.759308 736.878784,413.689667 739.903564,413.424561 
	C747.528198,412.756409 755.021545,411.252838 762.522034,409.784271 
	C764.044434,409.486145 765.468018,409.175507 766.506592,407.983643 
	C772.721558,400.851379 778.917236,393.702240 785.401428,386.233826 
	C781.063477,384.196777 777.312805,385.979095 773.789124,386.507629 
	C762.631287,388.181213 751.290283,388.520111 740.261108,391.113647 
	C738.488708,391.530457 736.594543,391.605896 734.844177,390.888062 
	C732.587585,389.962646 731.540771,388.240417 731.742188,385.757690 
	C731.934509,383.386475 733.533630,382.868256 735.512817,382.618835 
	C745.390320,381.373932 755.258850,380.056976 765.136780,378.815155 
	C776.332947,377.407623 787.532654,376.026855 798.738281,374.697144 
	C800.983521,374.430695 803.596436,373.647644 804.812073,376.567291 
	C805.993225,379.404175 805.079590,382.266693 802.765503,383.699493 
	C793.299744,389.560394 788.028931,399.447723 779.892090,406.916046 
z"/>
<path fill="#000000" opacity="1.000000" stroke="none" 
	d="
M600.019531,211.550079 
	C590.064392,214.063843 582.087769,209.299591 573.919800,205.773132 
	C570.955872,204.493469 571.984863,201.797150 572.830200,199.251663 
	C577.982178,183.737900 585.232300,169.083130 591.200684,153.907440 
	C592.781616,149.887512 594.457031,145.830597 595.343201,141.633179 
	C596.167297,137.729218 598.484192,136.929474 601.459290,137.928131 
	C607.595154,139.987762 613.867554,141.898987 619.439148,145.259460 
	C625.101990,148.675003 627.526245,155.722321 625.777588,162.855972 
	C623.508423,172.113052 619.419678,180.709076 615.772766,189.461380 
	C614.107971,193.456589 612.405640,197.438477 610.851807,201.476974 
	C608.930908,206.469711 605.551147,209.845993 600.019531,211.550079 
M606.631897,149.158905 
	C604.473877,148.256927 602.932983,148.454834 601.949341,151.004700 
	C596.096985,166.176285 590.134338,181.305298 584.226746,196.455643 
	C583.688416,197.836258 583.115845,199.148453 584.637451,200.495880 
	C590.160950,205.387177 599.052795,204.736206 601.918335,198.282669 
	C607.160339,186.477066 612.939575,174.872757 616.787415,162.456100 
	C618.315247,157.525970 616.514282,154.436218 612.668335,151.977097 
	C611.007751,150.915329 609.124268,150.202225 606.631897,149.158905 
z"/>
<path fill="#000000" opacity="1.000000" stroke="none" 
	d="
M310.364197,246.625031 
	C313.192566,248.982727 315.742249,251.119507 318.308044,253.236786 
	C326.416138,259.927490 328.053589,269.172913 322.349213,278.021698 
	C319.928436,281.776886 316.851044,285.105011 314.130646,288.671875 
	C311.417999,292.228516 308.904938,292.002533 305.317291,289.378967 
	C292.663818,280.125885 281.500854,269.131958 269.374542,259.277710 
	C265.509735,256.137024 261.519775,253.119431 257.375458,250.363754 
	C254.242569,248.280563 254.037994,246.018890 256.114197,243.295624 
	C258.734436,239.858810 261.482117,236.518570 264.197144,233.154724 
	C271.303436,224.350266 280.299835,223.044006 289.676941,229.610580 
	C296.908356,234.674530 303.523102,240.513382 310.364197,246.625031 
M311.469391,277.795929 
	C317.790131,269.791595 318.513184,265.649109 313.039795,260.913483 
	C304.127625,253.202530 295.595062,245.050583 286.223999,237.853302 
	C277.461914,231.123734 272.589905,236.288162 267.519592,243.137207 
	C266.341522,244.728577 267.103577,245.806381 268.441986,246.894043 
	C281.074951,257.160309 293.670074,267.473145 306.295776,277.748352 
	C307.701447,278.892334 309.183716,280.301331 311.469391,277.795929 
z"/>
<path fill="#000000" opacity="1.000000" stroke="none" 
	d="
M380.412598,175.780914 
	C383.447937,180.949539 384.273865,186.262558 382.890533,191.535965 
	C381.981781,195.000305 383.315735,196.529709 385.867706,197.895676 
	C391.175171,200.736557 396.067230,204.200394 400.755066,207.944336 
	C402.961426,209.706451 405.654846,211.722443 403.277069,214.944016 
	C400.849121,218.233551 397.992523,217.271393 395.014893,215.202133 
	C389.408783,211.306229 383.640747,207.642380 377.919769,203.913177 
	C373.525269,201.048660 373.511414,201.069885 368.379944,204.834015 
	C371.369354,209.862900 374.502747,214.901443 377.389160,220.077698 
	C379.093231,223.133652 382.332489,226.884216 377.723511,229.594666 
	C373.034119,232.352386 371.119904,228.107956 369.177826,224.683243 
	C359.814850,208.172134 350.406006,191.686874 340.963531,175.221100 
	C337.572876,169.308472 338.050568,167.448380 344.165161,164.285248 
	C346.679199,162.984695 349.241516,161.777679 351.764008,160.493027 
	C362.438141,155.056808 369.300659,159.190338 375.465851,167.244934 
	C377.372162,169.735443 378.669098,172.692398 380.412598,175.780914 
M360.660950,191.827362 
	C361.938385,193.984070 363.011536,196.581543 366.328003,194.864227 
	C370.011749,192.956741 374.998383,191.183853 374.280518,186.375610 
	C373.209656,179.203049 369.268280,172.983932 363.549866,168.326416 
	C360.827820,166.109390 354.746765,167.559235 351.605499,170.657837 
	C348.790161,173.434906 351.620178,175.608917 352.690979,177.721802 
	C355.020935,182.319107 357.740631,186.718887 360.660950,191.827362 
z"/>
<path fill="#000000" opacity="1.000000" stroke="none" 
	d="
M647.335449,232.376892 
	C659.843079,217.836990 670.579834,202.302872 683.398804,188.474304 
	C685.492859,186.215378 687.481934,183.330597 690.757629,186.199844 
	C693.677979,188.757889 692.297485,191.573593 690.165222,194.083618 
	C685.235962,199.886169 680.327942,205.706818 675.142944,211.837448 
	C678.506531,214.594421 681.479065,216.952545 684.359314,219.418549 
	C686.364807,221.135590 687.737061,219.982239 688.995117,218.525177 
	C692.912720,213.988129 696.776550,209.404510 700.654785,204.833466 
	C702.680664,202.445709 704.564819,199.086746 708.313232,201.742493 
	C712.020752,204.369293 709.536682,207.398163 708.044556,210.092407 
	C706.094116,213.614120 703.210754,216.436935 700.653015,219.508011 
	C691.064026,231.021286 681.551208,242.597961 672.012268,254.152939 
	C671.375854,254.923782 670.811096,255.760162 670.125366,256.482788 
	C667.849670,258.880981 665.675232,262.154785 661.892456,258.847870 
	C658.209473,255.628250 660.779785,253.032806 662.992615,250.385437 
	C668.119019,244.252289 673.093262,237.991150 678.265747,231.897797 
	C680.481934,229.286987 680.330933,227.311523 677.557007,225.328796 
	C675.142456,223.602997 673.211609,221.213852 669.848694,219.753082 
	C664.627197,225.838623 659.361206,232.015060 654.044678,238.147751 
	C652.523315,239.902649 650.976379,241.670853 649.223206,243.179764 
	C647.256897,244.872192 644.773438,245.165237 642.843506,243.380844 
	C640.767578,241.461380 641.545593,239.045486 643.054321,237.057449 
	C644.255737,235.474365 645.744019,234.108978 647.335449,232.376892 
z"/>
<path fill="#000000" opacity="1.000000" stroke="none" 
	d="
M205.278412,384.928253 
	C225.414108,386.438232 245.110626,388.011230 264.810638,389.539062 
	C267.923615,389.780457 270.530914,390.425293 270.268494,394.372589 
	C270.008057,398.290131 267.465332,398.694611 264.266541,398.408752 
	C256.820496,397.743347 249.364227,397.188721 241.908676,396.635590 
	C239.471909,396.454834 236.085663,395.420105 234.961884,397.711426 
	C233.247589,401.206879 232.693298,405.373169 233.714752,409.373199 
	C234.121368,410.965515 235.848068,410.691864 237.123291,410.858246 
	C243.547989,411.696625 249.963669,412.556061 256.458954,412.787842 
	C259.421844,412.893555 262.412262,413.433197 265.297333,414.149872 
	C267.808868,414.773682 269.405945,416.691925 268.888824,419.358521 
	C268.384796,421.957642 266.099182,422.445068 263.789978,422.300659 
	C258.490479,421.969177 253.179825,421.711273 247.902298,421.153229 
	C231.864258,419.457275 215.668961,419.869476 199.679123,417.439514 
	C196.672653,416.982605 194.267517,416.447937 194.541321,412.894623 
	C194.831406,409.130341 197.600143,408.509796 200.705643,408.794128 
	C207.153351,409.384430 213.599258,410.003601 220.035324,410.707581 
	C223.444733,411.080505 224.668121,409.800079 224.841217,406.284912 
	C225.321823,396.524536 225.463776,396.649078 215.553009,394.920868 
	C211.564224,394.225311 207.580200,394.571716 203.612747,394.212677 
	C200.645752,393.944153 197.135101,393.895752 196.929443,389.804535 
	C196.727646,385.790100 200.065033,385.772461 202.891937,385.412079 
	C203.549240,385.328247 204.191299,385.124817 205.278412,384.928253 
z"/>
<path fill="#000000" opacity="1.000000" stroke="none" 
	d="
M731.170776,255.121735 
	C720.829651,267.984375 709.885864,279.909332 700.727844,293.264008 
	C699.169495,295.536530 697.050842,297.014893 694.404968,295.149139 
	C691.632141,293.193817 692.221985,290.377747 693.787231,288.054016 
	C697.228210,282.945862 700.663452,277.786621 704.622314,273.087341 
	C708.962891,267.934784 703.660095,265.854340 701.906616,262.615021 
	C700.172546,259.411530 697.892273,260.068634 695.240540,261.522156 
	C689.693665,264.562622 684.071960,267.473236 678.408020,270.290497 
	C675.678284,271.648254 673.120178,271.240265 671.606567,268.306458 
	C669.992798,265.178436 671.676331,263.009949 674.351746,261.866882 
	C693.055115,253.875763 709.871338,242.057968 728.993225,234.953308 
	C732.372864,233.697647 736.205444,230.515030 739.525757,234.375229 
	C742.845642,238.234955 739.736389,241.942200 737.795227,245.305573 
	C735.885864,248.613831 733.537170,251.668579 731.170776,255.121735 
M714.150269,251.712585 
	C712.329590,252.984161 709.719604,253.157318 708.615845,255.635284 
	C709.806824,258.033539 711.240723,260.117981 714.049194,261.410461 
	C718.497681,256.627563 722.875366,252.039841 726.800842,245.461533 
	C722.101074,247.781265 718.454407,249.581192 714.150269,251.712585 
z"/>
<path fill="#000000" opacity="1.000000" stroke="none" 
	d="
M444.450623,200.872818 
	C441.149017,201.816269 439.364655,200.216171 437.889343,197.999084 
	C434.478516,192.873291 430.895386,187.851410 427.712341,182.587708 
	C424.214478,176.803467 420.451935,181.539734 416.875549,182.097061 
	C413.411713,182.636856 413.256439,184.983032 413.856720,188.123993 
	C414.944397,193.815277 415.528290,199.609726 416.156464,205.379196 
	C416.501831,208.551437 416.045654,211.750610 412.093536,212.151535 
	C407.833710,212.583664 406.792175,209.503052 406.704834,206.006790 
	C406.384460,193.188873 403.620270,180.652435 402.390625,167.944962 
	C401.575562,159.522415 401.242371,151.052246 400.748993,142.600174 
	C400.607117,140.169479 400.965820,137.816483 403.675201,136.866165 
	C406.284698,135.950912 408.604645,136.666489 410.514709,138.627563 
	C415.306396,143.547104 419.320404,149.109482 422.623566,155.062897 
	C429.729340,167.870132 436.685638,180.750351 444.960327,192.865570 
	C446.707520,195.423660 448.202393,198.160965 444.450623,200.872818 
M410.366577,155.843094 
	C410.848114,161.710602 410.912415,167.646683 412.694733,173.373077 
	C415.783691,173.230850 417.972351,172.251907 420.363770,170.560974 
	C418.242889,164.915955 415.206299,159.824524 411.832703,154.917145 
	C411.373505,154.249222 410.709076,154.322266 410.366577,155.843094 
z"/>
<path fill="#000000" opacity="1.000000" stroke="none" 
	d="
M263.424011,351.669312 
	C262.317780,351.547913 261.655853,351.461609 260.991669,351.436737 
	C252.888000,351.133392 250.266479,353.654083 249.663284,361.909088 
	C249.495285,364.208313 251.014893,364.736176 252.445801,365.474823 
	C257.324188,367.993073 262.246826,370.425751 267.121613,372.950836 
	C268.588593,373.710754 270.092499,374.505096 271.332611,375.570892 
	C272.935272,376.948242 273.798492,378.783508 272.745758,380.920105 
	C271.616058,383.212952 269.595367,383.719360 267.259125,383.316986 
	C266.617126,383.206451 265.946533,383.002777 265.394226,382.668243 
	C248.160461,372.228180 229.175217,365.036682 212.257111,354.014282 
	C211.420486,353.469269 210.578674,352.928619 209.774612,352.337830 
	C207.391830,350.587036 204.327423,349.136139 205.502136,345.332184 
	C206.642883,341.638123 210.036682,341.018066 213.144028,340.816498 
	C221.431213,340.279022 229.784103,339.730316 238.030014,340.869110 
	C248.773300,342.352783 259.534546,342.861359 270.350800,342.803864 
	C272.013489,342.795013 273.683228,342.849121 275.338593,342.997742 
	C278.274017,343.261261 281.320374,343.730347 281.185425,347.614899 
	C281.055481,351.355591 278.035126,351.310730 275.319946,351.397858 
	C271.502747,351.520325 267.684875,351.622253 263.424011,351.669312 
M241.951752,356.149567 
	C242.274887,354.062256 244.194534,351.255066 240.631897,350.488647 
	C235.084534,349.295288 229.411758,348.771118 222.679993,349.770996 
	C228.465103,352.906219 233.366409,355.530884 238.233994,358.216705 
	C240.059494,359.223969 241.366669,359.249573 241.951752,356.149567 
z"/>
<path fill="#000000" opacity="1.000000" stroke="none" 
	d="
M716.764648,302.764709 
	C728.142029,291.303284 739.260071,280.082550 750.425598,268.909271 
	C751.828613,267.505249 753.440430,266.296417 755.029724,265.095306 
	C757.007202,263.600769 759.295288,262.502838 761.218689,264.824066 
	C762.992371,266.964600 762.857666,269.487579 760.845459,271.602661 
	C751.904602,281.000458 743.010864,290.449432 733.249756,299.019257 
	C730.131287,301.757111 726.971680,304.437317 724.118652,308.194458 
	C727.249023,309.000946 729.831543,307.700073 732.392212,307.195862 
	C745.907654,304.534424 759.389771,301.703308 772.886902,298.948273 
	C773.697083,298.782898 774.537781,298.766907 775.364136,298.680450 
	C778.172729,298.386536 780.442078,299.180054 781.038391,302.208038 
	C781.687134,305.502502 779.340759,306.629486 776.737671,307.176239 
	C769.269226,308.744873 761.772400,310.177612 754.298401,311.720459 
	C741.462280,314.370117 728.635376,317.064514 715.803345,319.734161 
	C714.830078,319.936646 713.850342,320.216675 712.867737,320.243652 
	C710.524109,320.308014 708.009094,320.368500 706.760437,317.890869 
	C705.458496,315.307434 706.488525,313.053131 708.400635,311.134460 
	C711.101624,308.424225 713.812927,305.724274 716.764648,302.764709 
z"/>
<path fill="#000000" opacity="1.000000" stroke="none" 
	d="
M323.216064,227.799377 
	C327.614960,233.061691 331.965515,237.890427 336.902344,242.141983 
	C339.811920,244.647690 343.083862,245.929184 346.214722,242.714462 
	C349.119202,239.732162 352.108246,236.591782 348.907013,231.852615 
	C347.312927,229.492737 345.749695,226.666229 349.301361,224.556473 
	C352.605835,222.593552 354.583496,224.922302 356.345215,227.256699 
	C360.326263,232.531891 360.382080,239.261581 356.569366,244.981766 
	C352.230652,251.491150 345.157104,254.628052 338.583771,252.883286 
	C335.320587,252.017166 332.174377,250.680908 329.880737,248.188599 
	C319.506866,236.916107 308.647644,226.007187 300.373535,213.011368 
	C294.720337,204.132156 297.322754,194.674545 306.279968,189.502304 
	C311.990845,186.204605 322.258667,187.427002 326.865417,192.043823 
	C328.842377,194.025131 330.365570,196.488037 328.620544,199.168045 
	C326.842194,201.899200 324.272888,200.777664 321.946472,199.596939 
	C320.461731,198.843369 318.963226,198.116806 317.479340,197.361633 
	C313.742615,195.459976 310.687164,196.513672 308.212738,199.614639 
	C305.849792,202.575897 305.623352,205.662033 308.067719,208.739349 
	C313.042053,215.001755 318.021423,221.260178 323.216064,227.799377 
z"/>
<path fill="#000000" opacity="1.000000" stroke="none" 
	d="
M739.764282,337.648376 
	C754.143555,332.226593 768.949646,329.397888 782.794739,323.630493 
	C787.059021,321.854126 789.458435,323.711609 790.798706,327.646362 
	C792.565857,332.834351 794.312439,338.029755 796.000610,343.243774 
	C796.354980,344.338074 796.572815,345.525696 796.582336,346.672546 
	C796.603394,349.219482 795.666199,351.439362 792.957458,351.910248 
	C790.310242,352.370422 789.143433,350.396332 788.481018,348.161377 
	C787.395142,344.497894 786.293640,340.838135 785.279663,337.154510 
	C784.456726,334.164490 782.895508,333.137299 779.770691,334.267731 
	C776.026978,335.622101 772.177307,336.727142 768.310120,337.684235 
	C764.324463,338.670685 762.635742,340.529419 764.455383,344.712677 
	C765.163879,346.341736 765.407593,348.251923 765.495361,350.052032 
	C765.605164,352.301117 764.458618,353.869629 762.089417,354.227631 
	C759.937683,354.552734 758.546875,353.484497 757.860168,351.552765 
	C756.864929,348.753082 755.995789,345.908600 754.866577,342.451721 
	C747.103638,344.877441 739.550903,347.163391 732.057434,349.629669 
	C730.120544,350.267120 730.687439,351.975433 731.173462,353.452789 
	C732.263916,356.767822 733.288330,360.105133 734.416992,363.406921 
	C735.476440,366.506409 735.120239,369.183228 731.761353,370.360138 
	C728.215637,371.602478 727.180481,369.019867 726.326538,366.260193 
	C724.754944,361.181274 722.971191,356.167633 721.422302,351.082153 
	C719.594971,345.082184 720.591187,343.295471 726.466736,341.545258 
	C730.765686,340.264648 735.073486,339.013733 739.764282,337.648376 
z"/>
<path fill="#000000" opacity="1.000000" stroke="none" 
	d="
M546.333069,165.522705 
	C544.552856,173.441452 542.987671,181.042938 541.423279,188.640381 
	C545.076599,191.149536 549.051697,190.825165 552.715698,191.567245 
	C554.690063,191.967133 556.678406,192.226898 558.346558,193.363876 
	C560.035461,194.514954 560.623352,196.252991 559.876770,198.190720 
	C559.152222,200.071045 557.740967,201.223343 555.612976,200.841370 
	C548.920654,199.640076 542.214478,198.490952 535.568237,197.066971 
	C531.464600,196.187744 531.199097,192.836975 531.836060,189.551651 
	C534.328979,176.694199 536.903259,163.851440 539.588135,151.032730 
	C540.915405,144.695892 542.050903,138.345413 542.746155,131.905502 
	C543.363159,126.190536 544.858032,124.914383 550.551758,125.678909 
	C556.458618,126.472046 562.330872,127.567291 568.181763,128.716202 
	C571.265137,129.321655 573.648987,131.275574 572.866028,134.603058 
	C572.049316,138.073685 568.841187,137.518570 566.215454,137.018494 
	C562.631714,136.335999 559.104309,135.362579 555.536621,134.588593 
	C553.561035,134.160019 551.869568,134.400391 551.374329,136.856094 
	C550.165466,142.851410 548.918579,148.839066 547.708984,154.722565 
	C550.639465,156.718582 553.769470,156.568283 556.586060,157.454681 
	C559.483765,158.366608 560.789429,160.212341 560.178467,163.061890 
	C559.532532,166.074539 557.296021,165.932190 554.701782,165.665588 
	C552.014160,165.389374 549.358582,163.296463 546.333069,165.522705 
z"/>
<path fill="#000000" opacity="1.000000" stroke="none" 
	d="
M460.174805,181.073303 
	C460.893585,184.928802 461.676697,188.334625 462.163239,191.782303 
	C462.519226,194.304962 462.525909,197.153610 459.492188,198.036423 
	C456.324768,198.958115 454.646515,196.808578 453.480713,194.116135 
	C451.237701,188.935776 451.521271,183.327530 450.885620,177.924454 
	C449.043854,162.269608 447.335632,146.616867 443.709198,131.234833 
	C442.909729,127.843674 443.773163,125.324776 448.226440,125.563042 
	C453.422211,125.841042 458.446808,124.404755 463.463104,123.268288 
	C466.280304,122.630035 469.095215,122.534668 471.903992,122.777313 
	C474.471405,122.999123 477.128326,123.768494 477.110443,127.006485 
	C477.091644,130.401505 474.727448,131.554489 471.659882,131.317535 
	C466.745270,130.937881 462.108673,132.311676 457.386108,133.273483 
	C454.915192,133.776718 453.924469,135.057953 454.239624,137.439194 
	C454.936432,142.703949 455.668976,147.964066 456.406647,153.223297 
	C456.712860,155.406647 458.305725,155.797531 460.099274,155.630447 
	C462.246399,155.430420 464.370300,154.940201 466.518707,154.805222 
	C468.907532,154.655106 470.911316,155.446533 471.151031,158.202682 
	C471.357758,160.579056 470.416443,162.355820 467.968933,163.216354 
	C464.808777,164.327469 460.462463,163.111481 458.700562,166.901794 
	C457.234528,170.055588 459.354065,173.414917 459.397278,176.730942 
	C459.414246,178.037369 459.860962,179.338196 460.174805,181.073303 
z"/>
<path fill="#000000" opacity="1.000000" stroke="none" 
	d="
M503.007507,121.711571 
	C508.165436,121.725899 512.825562,121.787720 517.484375,121.732552 
	C519.867371,121.704323 522.146790,122.155251 524.273193,123.110771 
	C526.262512,124.004745 527.407959,125.626549 526.807190,127.937019 
	C526.267639,130.012207 524.717102,130.812592 522.667542,130.797180 
	C522.501648,130.795944 522.335999,130.770935 522.170044,130.768387 
	C510.325500,130.585541 510.299286,130.585587 510.276947,142.630539 
	C510.250397,156.941925 510.266541,171.253433 510.284912,185.564850 
	C510.288147,188.094879 510.107788,190.587326 508.694153,192.765930 
	C507.516327,194.581100 505.789276,195.622314 503.592834,195.060257 
	C501.530945,194.532593 500.564941,192.805862 500.804016,190.853104 
	C502.713501,175.256042 499.764557,159.618668 501.269287,144.025925 
	C501.365143,143.032486 501.511230,142.042648 501.572754,141.047333 
	C502.201660,130.870667 502.200256,130.832870 492.307068,130.282516 
	C489.084473,130.103241 486.567627,129.060684 486.680389,125.427742 
	C486.795898,121.704903 489.794800,121.660805 492.524902,121.639893 
	C495.852631,121.614395 499.181030,121.682823 503.007507,121.711571 
z"/>
<path fill="#000000" opacity="1.000000" stroke="none" 
	d="
M422.976379,809.977112 
	C426.391876,808.932373 427.609650,810.424805 427.299438,813.707397 
	C426.903320,817.898499 427.212921,821.488586 432.979523,820.864685 
	C433.983490,820.756042 434.984985,821.363647 434.838959,822.660278 
	C434.700226,823.892212 433.661072,824.333557 432.653137,824.226440 
	C427.455200,823.674377 427.087433,826.842834 427.255035,830.781189 
	C427.431732,834.933105 427.270203,839.098633 427.290985,843.258057 
	C427.325104,850.081726 427.393280,850.141418 434.254181,850.374329 
	C434.574219,853.720093 432.218781,854.090576 429.886078,854.223633 
	C426.304291,854.428101 424.216461,852.544495 423.756470,849.062744 
	C422.948639,842.947876 422.993469,836.788330 423.016907,830.631897 
	C423.039581,824.672791 418.225891,821.866882 412.764343,824.572449 
	C410.800232,825.545471 411.210785,827.350952 411.198578,828.935669 
	C411.147339,835.590454 411.226837,842.246277 411.157990,848.900757 
	C411.140137,850.625610 411.497894,853.059570 408.764282,852.936829 
	C406.433838,852.832275 406.796448,850.595032 406.777771,849.027649 
	C406.706451,843.038757 406.752838,837.048584 406.741333,831.058899 
	C406.730591,825.465210 406.722809,825.465210 401.304077,822.580200 
	C407.738708,820.633606 406.306732,815.033997 408.013702,810.837952 
	C409.867798,806.280334 413.996368,805.510437 418.402985,805.684204 
	C420.774994,805.777710 423.320129,805.648010 422.702332,809.553833 
	C420.622467,809.736267 418.977875,809.330505 417.359314,809.416138 
	C413.148926,809.638977 411.494263,812.086914 411.156494,816.218994 
	C410.773956,820.898499 413.798523,820.600220 416.794006,820.942505 
	C421.027313,821.426208 423.557373,820.270935 423.067230,815.421997 
	C422.885315,813.622375 422.998016,811.792969 422.976379,809.977112 
z"/>
<path fill="#000000" opacity="1.000000" stroke="none" 
	d="
M483.362213,847.963013 
	C486.638855,848.631592 489.635315,848.937988 492.468079,849.789185 
	C498.295624,851.540344 499.805298,857.199402 495.885925,861.930176 
	C492.183441,866.398926 482.283234,867.711792 477.481171,864.370850 
	C473.698242,861.739014 473.846893,857.546265 478.161621,851.429382 
	C475.854431,848.886230 474.759735,846.073120 477.809570,843.044250 
	C479.023376,841.838867 477.796448,840.614868 477.243286,839.439758 
	C474.815735,834.283020 474.618439,828.924438 477.810944,824.249695 
	C480.727020,819.979614 485.443085,819.439514 490.350769,820.573303 
	C492.694336,821.114807 495.303772,819.942322 497.920227,821.778992 
	C495.788605,824.247925 496.135315,826.920105 496.671051,829.893188 
	C498.135712,838.021118 493.559906,843.305237 485.195038,843.495300 
	C483.450348,843.535034 481.730072,843.384827 480.944061,845.229309 
	C480.149841,847.093079 481.768280,847.399658 483.362213,847.963013 
M492.502319,828.304688 
	C490.966278,824.591309 488.422607,822.562744 484.341400,824.132874 
	C480.273712,825.697876 478.684967,830.836670 480.162079,835.605652 
	C481.365540,839.490967 484.087372,840.616150 487.480530,839.640442 
	C492.820587,838.104980 492.873230,833.573486 492.502319,828.304688 
M493.159393,858.656799 
	C494.060455,856.375854 494.018005,854.254700 491.358093,853.359497 
	C487.931183,852.206116 484.274841,850.840393 481.133972,853.895081 
	C479.657440,855.330933 477.941772,857.037964 479.004822,859.522217 
	C479.952637,861.737183 482.071503,861.880188 484.058777,861.947449 
	C487.230438,862.054810 490.404877,861.982544 493.159393,858.656799 
z"/>
<path fill="#000000" opacity="1.000000" stroke="none" 
	d="
M632.675293,847.812439 
	C632.667725,841.503052 632.686890,835.671326 632.646973,829.839966 
	C632.623413,826.406921 631.491699,823.951965 627.417480,824.177917 
	C623.641785,824.387329 622.256226,826.385498 622.342468,830.067688 
	C622.494629,836.562073 622.414795,843.063110 622.343872,849.560425 
	C622.328735,850.946106 622.630981,852.966125 620.365601,852.824524 
	C618.582092,852.712891 618.736084,850.953918 618.724548,849.678406 
	C618.664429,843.014282 618.583313,836.347900 618.695068,829.685486 
	C618.756165,826.044678 617.631836,823.979065 613.582153,824.103760 
	C609.894348,824.217407 608.141663,825.610168 608.273315,829.555542 
	C608.484253,835.879761 608.376404,842.217529 608.272461,848.547363 
	C608.245728,850.174805 608.975708,852.381958 606.262207,852.936035 
	C604.042603,851.854675 604.733765,849.790222 604.707886,848.110596 
	C604.612793,841.947144 604.664124,835.781372 604.663330,829.616516 
	C604.662415,821.903442 608.020691,818.633545 615.568542,820.180603 
	C619.779907,821.043823 623.621094,821.030029 627.759888,820.210205 
	C632.536987,819.263916 636.002258,821.776428 636.165344,826.374878 
	C636.448486,834.361389 636.262451,842.365356 636.224915,850.361755 
	C636.219360,851.532410 636.014832,852.749023 634.308350,852.922363 
	C632.025574,852.073425 632.956238,849.950806 632.675293,847.812439 
z"/>
<path fill="#000000" opacity="1.000000" stroke="none" 
	d="
M523.952393,854.260132 
	C515.966248,853.788025 514.215027,852.074768 512.501160,844.701965 
	C511.293793,839.507996 511.701019,834.457581 512.973145,829.440002 
	C514.777466,822.323486 518.431580,820.055664 527.639954,820.000610 
	C529.183960,818.135620 528.419189,815.909363 528.467834,813.819153 
	C528.502441,812.331604 528.230469,810.827454 528.360901,809.354187 
	C528.488586,807.912109 528.619690,806.030151 530.693481,806.194275 
	C532.507874,806.337891 532.262268,808.090942 532.273010,809.349487 
	C532.323975,815.329285 532.301331,821.309814 532.300842,827.290039 
	C532.300354,833.270325 532.294495,839.250671 532.291992,845.230957 
	C532.288818,852.816711 532.133179,852.994934 523.952393,854.260132 
M520.671936,849.810059 
	C525.922058,851.043518 528.444336,850.045349 528.542847,846.288147 
	C528.695068,840.486206 528.536682,834.670837 528.326538,828.867798 
	C528.263855,827.136902 528.249207,824.983032 525.948425,824.404846 
	C523.555481,823.803406 521.378845,824.269592 519.558777,826.138977 
	C514.804260,831.022522 515.023132,844.584045 520.671936,849.810059 
z"/>
<path fill="#000000" opacity="1.000000" stroke="none" 
	d="
M382.418396,821.017578 
	C397.829376,819.220032 399.195465,820.426453 398.995300,835.528015 
	C398.949036,839.016052 398.620667,842.501221 398.393311,845.985779 
	C398.205505,848.863953 399.030121,852.133667 394.941223,853.301453 
	C390.445526,854.585449 385.845367,855.396362 382.227142,851.871826 
	C378.616364,848.354614 379.156860,843.640747 380.446869,839.200073 
	C381.656921,835.034485 384.976227,833.682617 388.955566,833.709961 
	C392.166138,833.731995 395.040527,833.809570 394.733093,829.165466 
	C394.512695,825.835999 393.064056,824.214844 389.807404,824.296387 
	C387.656250,824.350159 385.504028,824.565186 383.364990,824.816284 
	C382.209656,824.951965 380.901581,825.471436 380.260468,824.150513 
	C379.455353,822.491760 380.819794,821.798950 382.418396,821.017578 
M383.989227,845.836060 
	C385.117096,850.059814 387.952850,851.758057 391.887299,850.078369 
	C397.021881,847.886230 394.699463,843.010742 394.374603,839.499695 
	C394.017151,835.635864 390.111511,837.055359 387.839203,837.525574 
	C383.864746,838.348145 383.981964,841.944153 383.989227,845.836060 
z"/>
<path fill="#000000" opacity="1.000000" stroke="none" 
	d="
M568.856750,839.307495 
	C567.401306,839.312378 566.377625,839.174500 565.407654,839.344116 
	C563.218750,839.726990 559.554016,838.193176 559.681763,842.088684 
	C559.792847,845.476440 560.732910,849.158264 565.281494,849.833618 
	C568.481628,850.308716 571.505432,849.329712 574.394348,848.729919 
	C575.699402,849.945496 575.539734,851.061951 574.634338,851.987488 
	C570.193054,856.527649 559.231323,854.606934 557.141846,848.552429 
	C554.459167,840.779114 554.700684,832.774292 558.091064,825.188843 
	C560.056091,820.792419 564.343506,819.777466 568.636169,820.172302 
	C572.757446,820.551392 575.079651,823.308838 575.524109,827.513794 
	C575.680847,828.996399 576.102417,830.465759 576.124084,831.945312 
	C576.208557,837.713013 575.216858,838.735901 568.856750,839.307495 
M564.702637,835.764587 
	C565.361023,835.749878 566.019958,835.746704 566.677795,835.718567 
	C568.961609,835.621094 571.658813,835.994019 571.671936,832.534485 
	C571.683350,829.531555 572.728333,825.888977 568.756836,824.478882 
	C565.741028,823.408081 563.245422,824.730896 561.609680,827.407959 
	C560.201355,829.712769 559.878296,832.294922 560.016846,834.836792 
	C561.208557,836.063232 562.598206,835.644531 564.702637,835.764587 
z"/>
<path fill="#000000" opacity="1.000000" stroke="none" 
	d="
M454.258942,821.020935 
	C456.143188,820.641479 457.612000,820.351257 459.091156,820.130432 
	C465.703674,819.143494 469.640564,821.831360 470.030396,828.407166 
	C470.453247,835.540283 470.191467,842.715576 470.164978,849.872253 
	C470.159393,851.383545 469.990570,853.137756 467.852692,852.959900 
	C465.813751,852.790283 465.851654,851.009399 465.838776,849.529663 
	C465.783630,843.204407 465.675751,836.876221 465.814240,830.554016 
	C465.907684,826.289001 464.496246,824.062317 459.823090,824.022644 
	C455.039093,823.982056 453.896393,826.263000 454.066498,830.537720 
	C454.311157,836.687195 454.164246,842.854004 454.104401,849.012634 
	C454.088989,850.596863 454.401855,852.766602 452.086334,852.913940 
	C449.640625,853.069458 449.838593,850.876160 449.825470,849.285339 
	C449.760895,841.461975 449.863342,833.636597 449.734924,825.814758 
	C449.685608,822.810425 451.340393,821.696777 454.258942,821.020935 
z"/>
<path fill="#000000" opacity="1.000000" stroke="none" 
	d="
M597.655273,823.938293 
	C598.886108,832.444153 598.082703,840.595581 598.269714,848.730103 
	C598.359192,852.620789 595.280334,853.214233 592.577026,853.823303 
	C588.397461,854.765015 584.187317,854.840820 581.127258,851.110352 
	C578.992737,848.508179 579.006958,840.077332 580.980530,837.196289 
	C583.113037,834.083252 586.317078,833.501282 589.795654,833.675171 
	C592.538513,833.812317 594.820984,833.524902 594.677795,829.821228 
	C594.550232,826.523438 593.464417,824.233521 589.792114,824.305298 
	C587.314087,824.353638 584.841553,824.699829 582.367188,824.920288 
	C581.311279,825.014404 580.329590,824.938721 580.045715,823.670410 
	C579.840332,822.753113 580.327515,822.142578 581.039734,821.587585 
	C584.865356,818.605957 593.995911,819.682312 597.655273,823.938293 
M589.718689,837.193848 
	C588.739807,837.344299 587.613342,837.234070 586.807678,837.690369 
	C583.386169,839.628235 582.791260,842.862244 583.663696,846.296021 
	C584.454346,849.407715 586.757385,850.957886 590.041199,850.561768 
	C593.783752,850.110291 595.033630,847.683960 594.641785,844.216858 
	C594.311340,841.293213 596.289978,836.955994 589.718689,837.193848 
z"/>
<path fill="#000000" opacity="1.000000" stroke="none" 
	d="
M655.120605,835.834900 
	C658.028992,837.704041 659.988770,839.904358 660.891296,842.906921 
	C662.326233,847.680847 659.782898,851.955872 654.615967,853.545227 
	C648.329041,855.479065 643.603271,854.136230 642.212524,849.953796 
	C644.185120,848.552917 645.989319,849.989929 647.846436,850.309387 
	C651.159668,850.879272 654.509094,850.583679 656.157227,847.440308 
	C657.928772,844.061462 655.763000,841.408508 653.060669,839.391724 
	C651.198608,838.002075 649.231506,836.750427 647.285034,835.477356 
	C643.926270,833.280762 641.087280,830.702759 642.111938,826.195557 
	C643.155762,821.604065 647.077759,820.619019 650.931946,820.229065 
	C654.736694,819.844177 658.737488,819.760193 661.281494,824.012146 
	C658.405090,826.187561 656.114502,823.872375 653.764587,824.077820 
	C651.118408,824.309204 647.966064,823.816528 646.799988,826.757324 
	C645.507751,830.016235 648.594360,831.315552 650.683350,832.848877 
	C652.021545,833.831116 653.435852,834.709656 655.120605,835.834900 
z"/>
<path fill="#000000" opacity="1.000000" stroke="none" 
	d="
M358.377441,850.889343 
	C355.265533,854.750000 351.413666,854.860352 347.394165,853.644348 
	C343.540558,852.478455 342.320435,849.337219 341.594513,845.679138 
	C340.506439,840.196167 340.561279,834.796265 341.723419,829.355042 
	C342.923706,823.735168 347.379761,819.847412 353.054108,820.043335 
	C355.470032,820.126892 358.569916,820.190552 358.272491,824.075562 
	C357.767975,824.354736 357.471863,824.668274 357.211090,824.641235 
	C348.097290,823.695679 345.443542,825.994568 345.270111,835.119873 
	C345.219543,837.780518 345.152130,840.459595 345.391479,843.103149 
	C345.922913,848.973816 349.159332,851.142761 354.860596,849.804749 
	C356.058594,849.523499 357.757111,847.954651 358.377441,850.889343 
z"/>
<path fill="#000000" opacity="1.000000" stroke="none" 
	d="
M362.977509,848.701416 
	C362.994263,840.937744 363.022125,833.637756 363.021942,826.337830 
	C363.021820,821.138733 367.175812,820.958374 370.634308,820.225647 
	C373.396698,819.640503 376.227478,819.675049 377.124115,823.268188 
	C376.711792,823.705261 376.511505,824.118164 376.272095,824.142212 
	C367.309540,825.044312 367.308868,825.039429 367.293884,834.298584 
	C367.285858,839.275879 367.326904,844.254028 367.242523,849.230042 
	C367.216156,850.784058 367.572266,852.989075 365.121216,852.948730 
	C362.743164,852.909607 363.192352,850.727051 362.977509,848.701416 
z"/>
<path fill="#000000" opacity="1.000000" stroke="none" 
	d="
M538.763672,840.980835 
	C538.765503,835.655823 538.697754,830.824585 538.784302,825.996094 
	C538.872986,821.053101 543.023376,821.085999 546.269409,820.280762 
	C549.093445,819.580139 551.842041,819.673340 552.917847,823.164307 
	C552.519714,823.599121 552.325500,824.016357 552.083191,824.046387 
	C543.177490,825.152771 543.180908,825.147827 543.181458,834.429565 
	C543.181763,839.592529 543.199829,844.755981 543.136597,849.918274 
	C543.117676,851.461121 542.832458,853.123108 540.743835,852.976501 
	C538.982849,852.852783 538.869019,851.300293 538.831787,849.968445 
	C538.752625,847.139099 538.778809,844.306824 538.763672,840.980835 
z"/>
<path fill="#000000" opacity="1.000000" stroke="none" 
	d="
M443.331268,837.996765 
	C442.985413,843.340515 444.134979,848.377136 442.258514,853.924683 
	C438.580933,849.189819 438.919220,823.817322 443.331238,820.046326 
	C443.331238,826.613892 443.331238,832.056030 443.331268,837.996765 
z"/>
<path fill="#000000" opacity="1.000000" stroke="none" 
	d="
M529.790649,281.915924 
	C532.420166,273.785767 534.843811,266.003265 537.523499,258.309967 
	C539.407776,252.900146 542.810547,248.938400 550.169006,247.313477 
	C546.238464,260.841980 542.631104,273.258026 538.692993,286.812408 
	C552.473083,283.863434 564.973877,281.188232 578.347534,278.326233 
	C576.334656,285.221161 572.198242,288.407623 566.928772,289.888824 
	C558.456360,292.270325 549.884338,294.357239 541.263916,296.127930 
	C536.900391,297.024200 534.146729,298.791199 532.972290,303.307037 
	C532.069946,306.777008 530.336609,310.030914 528.803894,313.795990 
	C534.437134,314.790009 537.989441,317.126038 537.322510,323.109100 
	C536.737488,328.357086 531.790039,334.124725 526.662964,335.108948 
	C523.484985,335.719055 520.590515,334.830200 518.507629,332.409149 
	C515.958740,329.446411 516.062012,325.893524 517.588501,322.538940 
	C519.515076,318.305176 522.010864,314.322906 523.820190,310.045654 
	C525.279785,306.595032 527.543518,302.284088 524.710327,299.252289 
	C522.299622,296.672546 518.111084,298.632660 514.724976,299.336945 
	C510.271271,300.263275 506.355713,302.559723 502.188599,304.215332 
	C496.741119,306.379730 492.024200,305.338867 489.760162,301.480377 
	C487.553009,297.718811 488.904968,292.788940 493.163544,289.079712 
	C493.414520,288.861115 493.678741,288.657593 493.938721,288.449402 
	C501.577606,282.331665 508.010742,284.282104 510.712616,293.534851 
	C521.636169,293.046112 527.330994,289.675934 529.790649,281.915924 
M504.543488,295.988312 
	C505.105347,293.334991 504.393982,291.205536 501.568817,290.625916 
	C498.554993,290.007568 496.505493,291.888397 495.000427,294.187195 
	C493.912262,295.849182 493.818268,297.920654 495.612854,299.090363 
	C497.905975,300.585052 500.393250,300.134735 502.566101,298.491882 
	C503.214508,298.001678 503.695618,297.290192 504.543488,295.988312 
M524.347168,320.873474 
	C522.465881,322.810669 521.739868,325.085388 522.619751,327.677460 
	C523.089600,329.061493 524.258728,329.659912 525.731812,329.669312 
	C528.469116,329.686707 529.851624,327.849091 530.985962,325.769409 
	C531.911377,324.072693 532.167847,322.246429 530.721436,320.707367 
	C528.947205,318.819550 526.927856,319.041321 524.347168,320.873474 
z"/>
<path fill="#000000" opacity="1.000000" stroke="none" 
	d="
M471.324005,311.625061 
	C457.857239,289.988495 445.215576,268.352600 437.768127,244.139938 
	C442.217316,245.229263 444.217407,248.588547 446.440765,251.540817 
	C463.325287,273.960327 477.523956,298.028320 489.889343,323.189789 
	C491.351501,326.164948 493.041626,328.168945 496.375031,329.406311 
	C502.686249,331.748993 506.929077,339.865356 506.185394,347.560944 
	C505.725983,352.314697 504.721985,357.045166 501.594208,360.820618 
	C500.985504,360.786530 500.478821,360.897064 500.361389,360.731506 
	C495.680298,354.132782 490.829865,347.695679 484.700043,342.312958 
	C483.381989,341.155548 483.134277,339.170532 483.678406,337.614471 
	C485.579010,332.178986 482.308258,328.475769 479.681427,324.494141 
	C476.931549,320.326019 474.239685,316.119659 471.324005,311.625061 
z"/>
<path fill="#000000" opacity="1.000000" stroke="none" 
	d="
M573.527954,331.638824 
	C577.044006,331.252808 577.717041,329.605103 576.706787,326.745209 
	C575.756226,324.054596 574.608276,321.511200 572.981567,319.156769 
	C572.104492,317.887421 570.514587,316.774170 571.407593,314.843689 
	C573.140991,313.849854 574.017334,315.147980 574.712402,316.163300 
	C576.022949,318.077789 577.108948,320.146973 578.272095,322.161224 
	C579.754456,324.728210 579.048462,329.157867 581.633972,330.066071 
	C585.402466,331.389740 589.784668,330.716400 593.958008,330.288635 
	C610.150574,328.628937 626.367615,327.207581 642.578186,325.726257 
	C643.867737,325.608429 645.177429,325.710724 647.702820,325.710724 
	C643.586609,328.945099 639.729919,328.624908 636.224854,329.236359 
	C619.710632,332.117065 602.950684,333.322571 586.471863,336.491577 
	C582.439148,337.267059 581.071716,338.997894 581.782104,343.317657 
	C582.330444,346.652374 581.665283,350.302582 580.985352,353.701599 
	C578.943359,363.909241 568.342773,367.010132 560.351624,359.676575 
	C557.554443,357.109528 555.250183,353.970764 552.916138,350.942566 
	C550.230530,347.458282 547.661743,348.085236 545.061157,350.865692 
	C542.013855,354.123810 541.491272,357.948639 543.089294,361.995911 
	C544.715942,366.115509 547.828491,368.958710 552.046997,370.034149 
	C554.573547,370.678192 555.259094,368.324097 555.644226,366.251770 
	C555.996277,364.357361 554.976135,362.288239 556.320129,360.474457 
	C558.930481,363.026764 559.388550,368.165161 557.247437,371.012512 
	C554.995667,374.007080 552.208313,373.631561 549.209595,372.265381 
	C540.483826,368.290009 536.746460,359.470886 540.596680,351.813141 
	C544.257446,344.532227 550.899353,343.710052 556.072327,349.899353 
	C558.835632,353.205505 561.085510,356.984039 565.010925,359.197235 
	C570.907776,362.521881 575.903870,360.552551 577.682007,354.000641 
	C578.242432,351.935791 578.587524,349.760803 578.658447,347.623840 
	C578.939697,339.151947 578.886047,339.140015 570.378113,338.283447 
	C568.496948,338.094086 566.718201,337.824585 566.038391,335.450470 
	C567.590820,332.738068 570.435364,332.322998 573.527954,331.638824 
z"/>
</svg>